HIERARCHY
ROOT hip
{
	OFFSET 0.000000 0.000000 0.000000 
	CHANNELS 6 Xposition Yposition Zposition Xrotation Zrotation Yrotation
	JOINT abdomen
	{
		OFFSET 0.000000 3.402643 0.000000 
		CHANNELS 3 Xrotation Zrotation Yrotation
		JOINT chest
		{
			OFFSET 0.000000 8.438565 -0.680529 
			CHANNELS 3 Xrotation Zrotation Yrotation
			JOINT neck
			{
				OFFSET 0.000000 10.207942 -0.272212 
				CHANNELS 3 Xrotation Zrotation Yrotation
				JOINT head
				{
					OFFSET 0.000000 3.130431 0.000000 
					CHANNELS 3 Xrotation Zrotation Yrotation
					End Site
					{
						OFFSET 0.000000 3.130435 0.000000 
					}
				}
			}
			JOINT lCollar
			{
				OFFSET 3.470700 6.669187 -0.816635 
				CHANNELS 3 Yrotation Zrotation Xrotation
				JOINT lShldr
				{
					OFFSET 3.198488 0.000000 0.000000 
					CHANNELS 3 Zrotation Yrotation Xrotation
					JOINT lForeArm
					{
						OFFSET 10.139888 0.000000 0.000000 
						CHANNELS 3 Yrotation Zrotation Xrotation
						JOINT lHand
						{
							OFFSET 8.370511 0.000000 0.000000 
							CHANNELS 3 Zrotation Yrotation Xrotation
							End Site
							{
								OFFSET 4.083176 0.000000 0.000000 
							}
						}
					}
				}
			}
			JOINT rCollar
			{
				OFFSET -3.470700 6.669187 -0.816635 
				CHANNELS 3 Yrotation Zrotation Xrotation
				JOINT rShldr
				{
					OFFSET -3.198488 0.000000 0.000000 
					CHANNELS 3 Zrotation Yrotation Xrotation
					JOINT rForeArm
					{
						OFFSET -10.139888 0.000000 0.000000 
						CHANNELS 3 Yrotation Zrotation Xrotation
						JOINT rHand
						{
							OFFSET -8.370511 0.000000 0.000000 
							CHANNELS 3 Zrotation Yrotation Xrotation
							End Site
							{
								OFFSET -4.083176 0.000000 0.000000 
							}
						}
					}
				}
			}
		}
	}
	JOINT lThigh
	{
		OFFSET 5.308129 -1.633274 1.361059 
		CHANNELS 3 Xrotation Zrotation Yrotation
		JOINT lShin
		{
			OFFSET -2.041588 -20.007561 0.000000 
			CHANNELS 3 Xrotation Zrotation Yrotation
			JOINT lFoot
			{
				OFFSET 0.000000 -19.190928 -1.224953 
				CHANNELS 3 Xrotation Yrotation Zrotation
				End Site
				{
					OFFSET 0.000000 -2.449906 4.627600 
				}
			}
		}
	}
	JOINT rThigh
	{
		OFFSET -5.308129 -1.633274 1.361059 
		CHANNELS 3 Xrotation Zrotation Yrotation
		JOINT rShin
		{
			OFFSET 2.041588 -20.007561 0.000000 
			CHANNELS 3 Xrotation Zrotation Yrotation
			JOINT rFoot
			{
				OFFSET 0.000000 -19.190928 -1.224953 
				CHANNELS 3 Xrotation Yrotation Zrotation
				End Site
				{
					OFFSET 0.000000 -2.449906 4.627600 
				}
			}
		}
	}
}
MOTION
Frames: 8
Frame Time: 0.033333
0.153245 44.847218 0.381806 4.160380 -0.594133 84.468407 0.000000 0.000000 0.000000 -6.284812 -6.814656 5.074223 21.536749 7.622547 0.471726 -9.767196 -4.171386 -17.053841 -6.321746 18.853378 25.000000 -98.412941 -24.893469 -4.957268 -34.321774 -0.937965 17.657141 -4.331978 2.985097 50.663128 -24.429379 -9.441217 20.038816 71.297745 15.227350 70.199226 9.059933 -5.659996 -7.112876 27.573439 -4.091288 -10.777329 30.556812 1.906703 15.665197 21.353115 -0.840821 -0.777525 0.368767 -6.201916 -29.119713 3.374420 -6.116137 -0.736296 9.217829 4.422752 0.831319 -7.402538 -18.510757 27.628601 
0.200950 45.078678 0.659297 5.234921 -0.826616 85.920227 0.000000 0.000000 0.000000 -6.783492 -7.903974 4.852290 21.785669 6.720953 0.400028 -9.850155 -3.502079 -17.553354 -4.026832 17.265350 25.000000 -98.489754 -23.127211 -4.967717 -32.179710 0.588124 21.253754 -5.081035 5.487103 50.283115 -23.682514 -9.825706 20.020655 70.862564 19.393557 69.057831 9.935857 -4.549297 -11.243250 21.866728 -4.860472 -11.360539 29.786264 1.789387 15.723341 20.868599 -0.733320 -0.737085 -0.712493 -5.967982 -28.275229 5.045454 -7.124613 -1.091478 9.013015 4.637862 0.857785 -8.351027 -19.646950 27.320755 
0.126672 45.293232 0.859333 6.515282 -1.271038 87.774590 0.000000 0.000000 0.000000 -7.022079 -9.082903 4.609972 21.737083 5.402970 0.307544 -10.023894 -2.850517 -18.326988 -1.622541 15.072177 25.000000 -97.692139 -21.992579 -5.429472 -29.972195 2.390856 26.618395 -6.227563 8.056431 49.631832 -22.777401 -10.763715 19.798424 70.365601 23.498493 67.895721 11.197885 -4.155836 -14.635536 17.528410 -4.800059 -11.825560 28.113283 1.289905 15.784586 19.364199 -0.986801 -0.697211 -1.374382 -3.993893 -28.196041 6.532118 -8.426424 -1.523211 8.634236 4.945884 0.914427 -9.238233 -21.292000 27.100399 
-0.089010 45.461792 1.033052 7.621921 -2.013319 90.013664 0.000000 0.000000 0.000000 -6.953831 -10.092777 4.407910 21.234291 3.851822 0.195788 -10.036439 -2.396783 -19.377672 0.714266 13.070350 24.473671 -96.855782 -21.354782 -5.907309 -28.217558 4.184965 32.333893 -7.338231 10.403934 48.917301 -21.901373 -12.332088 19.348534 69.850677 27.563946 66.709618 12.549331 -4.411056 -16.697102 15.479065 -4.422502 -12.038065 25.056931 0.830567 16.013655 18.069586 -1.611492 -0.742708 -1.525154 -0.306839 -28.318243 7.763096 -9.492677 -1.886667 8.098835 5.170383 0.931243 -9.947292 -23.432825 27.103590 
-0.425226 45.573700 1.194092 8.388729 -2.763134 92.316833 0.000000 0.000000 0.000000 -6.340703 -10.677990 4.284464 20.258970 2.095572 0.071417 -9.787232 -2.020269 -20.578552 3.113886 11.579651 23.925074 -96.285225 -20.984324 -6.227173 -27.292910 5.458358 37.034039 -8.053532 12.440281 48.372486 -20.866472 -14.404364 18.796978 69.134697 31.286720 65.462227 13.755458 -5.222527 -17.910131 15.257583 -3.991838 -11.993150 21.097818 0.499542 16.324324 17.242775 -2.480473 -0.882369 -1.367103 4.102834 -28.215244 8.851787 -10.082507 -2.084957 7.503148 5.219309 0.883976 -10.263105 -25.845541 27.805483 
-0.841715 45.643372 1.337113 8.725190 -3.262666 94.479729 0.000000 0.000000 0.000000 -5.106634 -10.583782 4.288319 18.984388 0.033024 -0.071012 -9.449404 -1.457758 -21.907887 5.845764 10.436287 23.401346 -95.966957 -20.616583 -6.415162 -27.069109 6.049929 39.906464 -8.405451 13.986989 48.060379 -19.481167 -17.010851 18.246811 68.061241 34.736038 64.054634 14.566181 -6.357744 -18.584784 15.972969 -3.464011 -11.779876 16.679863 0.325127 16.637617 16.601551 -3.585404 -1.071382 -0.909499 8.413131 -28.065685 10.130516 -10.121791 -2.113994 6.803185 5.103837 0.810673 -10.411261 -28.300652 28.799166 
-1.290745 45.685444 1.443164 8.725874 -3.339886 96.333115 0.000000 0.000000 0.000000 -3.320161 -9.817800 4.422538 17.681711 -2.348210 -0.243013 -9.171009 -0.623067 -23.110823 8.874363 9.492172 22.881191 -95.532158 -19.910610 -6.679932 -27.342211 5.534636 39.934963 -8.316136 15.165025 48.052559 -17.709829 -20.090830 17.831442 66.426399 38.095222 62.302822 14.835212 -7.325974 -18.988260 16.830116 -2.814023 -11.526162 12.183776 0.069333 16.871170 15.835442 -4.598594 -1.256531 -0.114644 11.838411 -28.070866 11.847499 -9.671917 -2.009160 5.920611 4.837348 0.680468 -10.605415 -30.553082 29.597986 
-1.725538 45.703213 1.467680 8.851171 -3.126458 97.852898 0.000000 0.000000 0.000000 -1.304964 -8.952793 4.567393 16.453972 -4.670894 -0.409081 -8.896571 0.176959 -23.942514 11.893497 8.855251 22.410645 -94.791725 -18.602852 -7.131260 -28.151613 3.552716 37.298588 -7.347678 16.163618 48.412968 -15.747270 -23.262774 17.666706 64.090340 41.074474 60.189579 14.723789 -8.082990 -19.346640 17.369711 -2.206587 -11.306343 7.841403 -0.976171 16.704729 14.730471 -4.803112 -1.221041 1.117245 13.634607 -28.261080 13.931799 -9.412138 -1.949082 4.928673 4.693508 0.567744 -10.714227 -32.423145 30.431255 
